<svg xmlns="http://www.w3.org/2000/svg" width="16" height="12" viewBox="0 0 16 12" fill="none">
<path d="M11.3125 4.25977C11.3125 6.51953 8.92578 8.32227 6.03125 8.32227C4.99023 8.32227 4 8.09375 3.1875 7.6875C2.62891 8.01758 1.86719 8.32227 0.953125 8.32227C0.851562 8.32227 0.800781 8.29688 0.75 8.2207C0.724609 8.14453 0.75 8.04297 0.800781 7.99219C0.800781 7.99219 1.35938 7.38281 1.71484 6.5957C1.10547 5.93555 0.75 5.14844 0.75 4.25977C0.75 2.02539 3.11133 0.197266 6.03125 0.197266C8.92578 0.197266 11.3125 2.02539 11.3125 4.25977ZM14.4102 9.8457C14.7402 10.6328 15.2988 11.2422 15.2988 11.2422C15.375 11.293 15.375 11.3945 15.3496 11.4707C15.3242 11.5469 15.248 11.5723 15.1719 11.5723C14.2324 11.5723 13.4707 11.2676 12.9121 10.9375C12.0996 11.3438 11.1348 11.5723 10.0938 11.5723C7.88477 11.5723 6.00586 10.5566 5.21875 9.10938C5.47266 9.13477 5.75195 9.13477 6.03125 9.13477C9.38281 9.13477 12.125 6.95117 12.125 4.25977C12.125 4.10742 12.0996 3.92969 12.0742 3.75195C14.0039 4.36133 15.375 5.83398 15.375 7.50977C15.375 8.39844 14.9941 9.18555 14.4102 9.8457Z" fill="#2D4A68"/>
</svg>